<svg xmlns="http://www.w3.org/2000/svg" xmlns:xlink="http://www.w3.org/1999/xlink" id="diagram" width="310" height="310">
  <defs>
    <clipPath id="clipPath-0">
      <rect x="5.0" y="5.0" width="300.0" height="300.0"/>
    </clipPath>
    <clipPath id="clipPath-1">
      <rect x="5.0" y="5.0" width="300.0" height="300.0"/>
    </clipPath>
  </defs>
  <g id="axes" stroke="black" stroke-width="2">
    <line id="line-0" x1="5.0" y1="262.1" x2="305.0" y2="262.1" type="horizontal axis" stroke-width="2"/>
    <line id="line-1" x1="90.7" y1="305.0" x2="90.7" y2="5.0" type="vertical axis" stroke-width="2"/>
    <g type="horizontal ticks" id="g-0"/>
    <g type="vertical ticks" id="g-1"/>
  </g>
  <polyline id="line1" stroke="black" stroke-width="2" fill="none" points="5.0,347.9 8.0,344.9 11.0,341.9 14.0,338.9 17.0,335.9 20.0,332.9 23.0,329.9 26.0,326.9 29.0,323.9 32.0,320.9 35.0,317.9 38.0,314.9 41.0,311.9 44.0,308.9 47.0,305.9 50.0,302.9 53.0,299.9 56.0,296.9 59.0,293.9 62.0,290.9 65.0,287.9 68.0,284.9 71.0,281.9 74.0,278.9 77.0,275.9 80.0,272.9 83.0,269.9 86.0,266.9 89.0,263.9 92.0,260.9 95.0,257.9 98.0,254.9 101.0,251.9 104.0,248.9 107.0,245.9 110.0,242.9 113.0,239.9 116.0,236.9 119.0,233.9 122.0,230.9 125.0,227.9 128.0,224.9 131.0,221.9 134.0,218.9 137.0,215.9 140.0,212.9 143.0,209.9 146.0,206.9 149.0,203.9 152.0,200.9 155.0,197.9 158.0,194.9 161.0,191.9 164.0,188.9 167.0,185.9 170.0,182.9 173.0,179.9 176.0,176.9 179.0,173.9 182.0,170.9 185.0,167.9 188.0,164.9 191.0,161.9 194.0,158.9 197.0,155.9 200.0,152.9 203.0,149.9 206.0,146.9 209.0,143.9 212.0,140.9 215.0,137.9 218.0,134.9 221.0,131.9 224.0,128.9 227.0,125.9 230.0,122.9 233.0,119.9 236.0,116.9 239.0,113.9 242.0,110.9 245.0,107.9 248.0,104.9 251.0,101.9 254.0,98.9 257.0,95.9 260.0,92.9 263.0,89.9 266.0,86.9 269.0,83.9 272.0,80.9 275.0,77.9 278.0,74.9 281.0,71.9 284.0,68.9 287.0,65.9 290.0,62.9 293.0,59.9 296.0,56.9 299.0,53.9 302.0,50.9 305.0,47.9" type="function-graph" clip-path="url(#clipPath-1)"/>
  <polyline id="line2" stroke="black" stroke-width="2" fill="none" points="5.0,47.9 8.0,49.4 11.0,50.9 14.0,52.4 17.0,53.9 20.0,55.4 23.0,56.9 26.0,58.4 29.0,59.9 32.0,61.4 35.0,62.9 38.0,64.4 41.0,65.9 44.0,67.4 47.0,68.9 50.0,70.4 53.0,71.9 56.0,73.4 59.0,74.9 62.0,76.4 65.0,77.9 68.0,79.4 71.0,80.9 74.0,82.4 77.0,83.9 80.0,85.4 83.0,86.9 86.0,88.4 89.0,89.9 92.0,91.4 95.0,92.9 98.0,94.4 101.0,95.9 104.0,97.4 107.0,98.9 110.0,100.4 113.0,101.9 116.0,103.4 119.0,104.9 122.0,106.4 125.0,107.9 128.0,109.4 131.0,110.9 134.0,112.4 137.0,113.9 140.0,115.4 143.0,116.9 146.0,118.4 149.0,119.9 152.0,121.4 155.0,122.9 158.0,124.4 161.0,125.9 164.0,127.4 167.0,128.9 170.0,130.4 173.0,131.9 176.0,133.4 179.0,134.9 182.0,136.4 185.0,137.9 188.0,139.4 191.0,140.9 194.0,142.4 197.0,143.9 200.0,145.4 203.0,146.9 206.0,148.4 209.0,149.9 212.0,151.4 215.0,152.9 218.0,154.4 221.0,155.9 224.0,157.4 227.0,158.9 230.0,160.4 233.0,161.9 236.0,163.4 239.0,164.9 242.0,166.4 245.0,167.9 248.0,169.4 251.0,170.9 254.0,172.4 257.0,173.9 260.0,175.4 263.0,176.9 266.0,178.4 269.0,179.9 272.0,181.4 275.0,182.9 278.0,184.4 281.0,185.9 284.0,187.4 287.0,188.9 290.0,190.4 293.0,191.9 296.0,193.4 299.0,194.9 302.0,196.4 305.0,197.9" type="function-graph" clip-path="url(#clipPath-1)"/>
  <circle id="point" cx="205.0" cy="147.9" r="5" stroke="none" stroke-width="2" fill="none" type="point"/>
</svg>
