<svg xmlns="http://www.w3.org/2000/svg" xmlns:xlink="http://www.w3.org/1999/xlink" id="diagram" width="310" height="310">
  <defs>
    <clipPath id="clipPath-0">
      <rect x="5.0" y="5.0" width="300.0" height="300.0"/>
    </clipPath>
    <clipPath id="clipPath-1">
      <rect x="5.0" y="5.0" width="300.0" height="300.0"/>
    </clipPath>
  </defs>
  <g id="axes" stroke="black" stroke-width="2">
    <line id="line-0" x1="5.0" y1="262.1" x2="305.0" y2="262.1" type="horizontal axis" stroke-width="2"/>
    <line id="line-1" x1="90.7" y1="305.0" x2="90.7" y2="5.0" type="vertical axis" stroke-width="2"/>
    <g type="horizontal ticks" id="g-0"/>
    <g type="vertical ticks" id="g-1"/>
  </g>
  <polyline id="line1" stroke="black" stroke-width="2" fill="none" points="5.0,26.4 8.0,28.7 11.0,30.9 14.0,33.2 17.0,35.4 20.0,37.7 23.0,39.9 26.0,42.2 29.0,44.4 32.0,46.7 35.0,48.9 38.0,51.2 41.0,53.4 44.0,55.7 47.0,57.9 50.0,60.2 53.0,62.4 56.0,64.7 59.0,66.9 62.0,69.2 65.0,71.4 68.0,73.7 71.0,75.9 74.0,78.2 77.0,80.4 80.0,82.7 83.0,84.9 86.0,87.2 89.0,89.4 92.0,91.7 95.0,93.9 98.0,96.2 101.0,98.4 104.0,100.7 107.0,102.9 110.0,105.2 113.0,107.4 116.0,109.7 119.0,111.9 122.0,114.2 125.0,116.4 128.0,118.7 131.0,120.9 134.0,123.2 137.0,125.4 140.0,127.7 143.0,129.9 146.0,132.2 149.0,134.4 152.0,136.7 155.0,138.9 158.0,141.2 161.0,143.4 164.0,145.7 167.0,147.9 170.0,150.2 173.0,152.4 176.0,154.7 179.0,156.9 182.0,159.2 185.0,161.4 188.0,163.7 191.0,165.9 194.0,168.2 197.0,170.4 200.0,172.7 203.0,174.9 206.0,177.2 209.0,179.4 212.0,181.7 215.0,183.9 218.0,186.2 221.0,188.4 224.0,190.7 227.0,192.9 230.0,195.2 233.0,197.4 236.0,199.7 239.0,201.9 242.0,204.2 245.0,206.4 248.0,208.7 251.0,210.9 254.0,213.2 257.0,215.4 260.0,217.7 263.0,219.9 266.0,222.2 269.0,224.4 272.0,226.7 275.0,228.9 278.0,231.2 281.0,233.4 284.0,235.7 287.0,237.9 290.0,240.2 293.0,242.4 296.0,244.7 299.0,246.9 302.0,249.2 305.0,251.4" type="function-graph" clip-path="url(#clipPath-1)"/>
  <polyline id="line2" stroke="black" stroke-width="2" fill="none" points="5.0,112.1 8.0,114.4 11.0,116.6 14.0,118.9 17.0,121.1 20.0,123.4 23.0,125.6 26.0,127.9 29.0,130.1 32.0,132.4 35.0,134.6 38.0,136.9 41.0,139.1 44.0,141.4 47.0,143.6 50.0,145.9 53.0,148.1 56.0,150.4 59.0,152.6 62.0,154.9 65.0,157.1 68.0,159.4 71.0,161.6 74.0,163.9 77.0,166.1 80.0,168.4 83.0,170.6 86.0,172.9 89.0,175.1 92.0,177.4 95.0,179.6 98.0,181.9 101.0,184.1 104.0,186.4 107.0,188.6 110.0,190.9 113.0,193.1 116.0,195.4 119.0,197.6 122.0,199.9 125.0,202.1 128.0,204.4 131.0,206.6 134.0,208.9 137.0,211.1 140.0,213.4 143.0,215.6 146.0,217.9 149.0,220.1 152.0,222.4 155.0,224.6 158.0,226.9 161.0,229.1 164.0,231.4 167.0,233.6 170.0,235.9 173.0,238.1 176.0,240.4 179.0,242.6 182.0,244.9 185.0,247.1 188.0,249.4 191.0,251.6 194.0,253.9 197.0,256.1 200.0,258.4 203.0,260.6 206.0,262.9 209.0,265.1 212.0,267.4 215.0,269.6 218.0,271.9 221.0,274.1 224.0,276.4 227.0,278.6 230.0,280.9 233.0,283.1 236.0,285.4 239.0,287.6 242.0,289.9 245.0,292.1 248.0,294.4 251.0,296.6 254.0,298.9 257.0,301.1 260.0,303.4 263.0,305.6 266.0,307.9 269.0,310.1 272.0,312.4 275.0,314.6 278.0,316.9 281.0,319.1 284.0,321.4 287.0,323.6 290.0,325.9 293.0,328.1 296.0,330.4 299.0,332.6 302.0,334.9 305.0,337.1" type="function-graph" clip-path="url(#clipPath-1)"/>
</svg>
